<?xml version="1.0" encoding="utf-8"?>
<!-- Generator: Adobe Illustrator 28.0.0, SVG Export Plug-In . SVG Version: 6.00 Build 0)  -->
<svg version="1.1" id="Layer_1" xmlns="http://www.w3.org/2000/svg" xmlns:xlink="http://www.w3.org/1999/xlink" x="0px" y="0px"
	 viewBox="0 0 200 100" style="enable-background:new 0 0 200 100;" xml:space="preserve">
<style type="text/css">
	.st0{fill:#5C2D91;}
</style>
<g>
	<path class="st0" d="M91.61,0.93h12.44v31.32c0,4.97,0.15,8.19,0.46,9.66c0.53,2.37,1.8,4.27,3.8,5.7c2,1.43,4.74,2.15,8.22,2.15
		c3.53,0,6.19-0.68,7.99-2.03c1.79-1.35,2.87-3.02,3.24-4.99c0.36-1.97,0.55-5.25,0.55-9.82V0.93h12.44V31.3
		c0,6.94-0.34,11.85-1.01,14.71c-0.67,2.87-1.91,5.29-3.72,7.26c-1.81,1.97-4.22,3.54-7.25,4.71c-3.03,1.17-6.98,1.76-11.85,1.76
		c-5.89,0-10.35-0.64-13.39-1.91c-3.04-1.28-5.44-2.93-7.21-4.97c-1.77-2.04-2.93-4.17-3.49-6.41c-0.81-3.31-1.22-8.21-1.22-14.67
		V0.93z"/>
	<path class="st0" d="M66.19,58.63V45.46H42.08V35.37L66.82,1.95h10.31v34.38h7.31v9.13h-7.57v13.17H66.19z M66.19,36.33V15.96
		L51.3,36.33H66.19z"/>
	<polygon class="st0" points="51.56,99.37 41.98,63.16 49.91,63.16 55.85,88.28 61.89,63.16 70.51,63.16 75.99,88.29 82.07,63.16 
		89.88,63.16 80.15,99.37 71.95,99.37 66.05,74.56 59.68,99.37 	"/>
	<rect x="120.41" y="63.16" class="st0" width="7.18" height="36.22"/>
	<rect x="133.57" y="63.16" class="st0" width="7.18" height="36.22"/>
	<path class="st0" d="M115.37,88.11H96.8c0.08,1.96,0.84,4.32,2.13,5.4c1.1,0.93,2.38,1.36,4.11,1.36c1.31,0,2.44-0.26,3.39-0.78
		c0.95-0.52,1.74-1.3,2.38-2.36l6.32,0c-1.17,3.1-3.68,5.56-5.6,6.64c-1.92,1.08-4.19,1.62-6.83,1.62c-4,0-7.17-1.23-9.5-3.68
		c-2.34-2.45-3.5-5.75-3.5-9.89c0-3.99,1.22-7.27,3.67-9.84c2.44-2.57,5.57-3.86,9.39-3.86c3.93,0,7.04,1.2,9.32,3.61
		c2.28,2.41,3.43,5.69,3.43,9.85c0,0.22-0.01,0.47-0.03,0.74C115.45,87.2,115.42,87.6,115.37,88.11 M108.52,83.58
		c-0.21-1.83-0.8-3.21-1.78-4.14c-0.98-0.93-2.31-1.4-3.99-1.4c-1.69,0-3.04,0.47-4.05,1.4c-1.01,0.93-1.66,2.32-1.94,4.14H108.52z"
		/>
	<polygon class="st0" points="147.02,2.08 144.88,2.08 144.88,0.93 150.42,0.93 150.42,2.08 148.28,2.08 148.28,7.65 147.02,7.65 	
		"/>
	<polygon class="st0" points="156.76,2.78 154.57,5.7 154.32,5.7 152.17,2.77 152.17,7.66 150.91,7.66 150.91,0.94 152.37,0.94 
		154.47,3.83 156.57,0.94 158.02,0.94 158.02,7.66 156.76,7.66 	"/>
</g>
</svg>
